<mxfile host="Electron" modified="2024-03-30T06:59:40.400Z" agent="Mozilla/5.0 (Windows NT 10.0; Win64; x64) AppleWebKit/537.36 (KHTML, like Gecko) draw.io/22.1.18 Chrome/120.0.6099.199 Electron/28.1.2 Safari/537.36" etag="EXP2ANNRIAmw-AKg3MpY" version="22.1.18" type="device">
  <diagram name="第 1 页" id="G7aSplWTcjDADa_dLF7H">
    <mxGraphModel dx="2008" dy="1258" grid="0" gridSize="10" guides="0" tooltips="1" connect="1" arrows="1" fold="1" page="0" pageScale="1" pageWidth="1169" pageHeight="827" math="0" shadow="0">
      <root>
        <mxCell id="0" />
        <mxCell id="1" parent="0" />
        <mxCell id="61yGe42W1xgJMwTfdtXw-4" value="&lt;font style=&quot;font-size: 32px;&quot;&gt;PigeonMQ Cluster&lt;/font&gt;" style="shape=process;whiteSpace=wrap;html=1;backgroundOutline=1;fillColor=#f0a30a;fontColor=#000000;strokeColor=#BD7000;fontSize=32;fontStyle=1" parent="1" vertex="1">
          <mxGeometry x="-504" y="-250" width="1478" height="60" as="geometry" />
        </mxCell>
        <mxCell id="Z0Ft9Ds0R03B7kahXyOP-15" value="Segment#1" style="rounded=0;whiteSpace=wrap;html=1;fillColor=#fad7ac;strokeColor=#b46504;" parent="1" vertex="1">
          <mxGeometry x="138" y="481" width="110" height="51" as="geometry" />
        </mxCell>
        <mxCell id="Z0Ft9Ds0R03B7kahXyOP-19" value="ZooKeeper" style="ellipse;shape=cloud;whiteSpace=wrap;html=1;fillColor=#a20025;fontColor=#ffffff;strokeColor=#6F0000;fontSize=18;" parent="1" vertex="1">
          <mxGeometry x="-512" y="617" width="309" height="158" as="geometry" />
        </mxCell>
        <mxCell id="Z0Ft9Ds0R03B7kahXyOP-20" value="Segment#2" style="rounded=0;whiteSpace=wrap;html=1;fillColor=#fad9d5;strokeColor=#ae4132;" parent="1" vertex="1">
          <mxGeometry x="280" y="481" width="110" height="51" as="geometry" />
        </mxCell>
        <mxCell id="Z0Ft9Ds0R03B7kahXyOP-21" value="Segment#3" style="rounded=0;whiteSpace=wrap;html=1;fillColor=#b0e3e6;strokeColor=#0e8088;" parent="1" vertex="1">
          <mxGeometry x="415" y="481" width="110" height="51" as="geometry" />
        </mxCell>
        <mxCell id="Z0Ft9Ds0R03B7kahXyOP-22" value="Segment#4" style="rounded=0;whiteSpace=wrap;html=1;fillColor=#b1ddf0;strokeColor=#10739e;" parent="1" vertex="1">
          <mxGeometry x="562" y="478" width="110" height="51" as="geometry" />
        </mxCell>
        <mxCell id="Z0Ft9Ds0R03B7kahXyOP-23" value="" style="endArrow=none;html=1;rounded=0;entryX=0;entryY=1;entryDx=0;entryDy=0;exitX=0;exitY=0;exitDx=0;exitDy=0;" parent="1" source="Z0Ft9Ds0R03B7kahXyOP-15" target="Z0Ft9Ds0R03B7kahXyOP-14" edge="1">
          <mxGeometry width="50" height="50" relative="1" as="geometry">
            <mxPoint x="208" y="403" as="sourcePoint" />
            <mxPoint x="258" y="353" as="targetPoint" />
          </mxGeometry>
        </mxCell>
        <mxCell id="Z0Ft9Ds0R03B7kahXyOP-24" value="" style="endArrow=none;html=1;rounded=0;entryX=1;entryY=0;entryDx=0;entryDy=0;exitX=1;exitY=1;exitDx=0;exitDy=0;" parent="1" source="Z0Ft9Ds0R03B7kahXyOP-14" target="Z0Ft9Ds0R03B7kahXyOP-22" edge="1">
          <mxGeometry width="50" height="50" relative="1" as="geometry">
            <mxPoint x="104" y="226" as="sourcePoint" />
            <mxPoint x="312" y="425.71067811865476" as="targetPoint" />
          </mxGeometry>
        </mxCell>
        <mxCell id="dxsY-QIQt3p90e8eu55t-1" value="Clients" style="swimlane;whiteSpace=wrap;html=1;dashed=1;dashPattern=12 12;" parent="1" vertex="1">
          <mxGeometry x="-487" y="-148" width="296" height="583" as="geometry" />
        </mxCell>
        <mxCell id="61yGe42W1xgJMwTfdtXw-2" value="Producers" style="rounded=0;whiteSpace=wrap;html=1;fillColor=#fff2cc;strokeColor=#d6b656;" parent="dxsY-QIQt3p90e8eu55t-1" vertex="1">
          <mxGeometry x="84" y="70" width="120" height="60" as="geometry" />
        </mxCell>
        <mxCell id="61yGe42W1xgJMwTfdtXw-3" value="Consumers" style="rounded=0;whiteSpace=wrap;html=1;fillColor=#dae8fc;strokeColor=#6c8ebf;" parent="dxsY-QIQt3p90e8eu55t-1" vertex="1">
          <mxGeometry x="85" y="188" width="120" height="60" as="geometry" />
        </mxCell>
        <mxCell id="r_JxJ2oKyWUwIvIO28ku-4" value="Adminitrator" style="rounded=0;whiteSpace=wrap;html=1;fillColor=#d5e8d4;strokeColor=#82b366;" parent="dxsY-QIQt3p90e8eu55t-1" vertex="1">
          <mxGeometry x="83" y="308" width="120" height="60" as="geometry" />
        </mxCell>
        <mxCell id="dxsY-QIQt3p90e8eu55t-3" value="Service Layer" style="swimlane;whiteSpace=wrap;html=1;dashed=1;dashPattern=12 12;" parent="1" vertex="1">
          <mxGeometry x="-115" y="-147" width="1087" height="588" as="geometry" />
        </mxCell>
        <mxCell id="Z0Ft9Ds0R03B7kahXyOP-1" value="Broker#1" style="swimlane;whiteSpace=wrap;html=1;fillColor=#f8cecc;strokeColor=#b85450;" parent="dxsY-QIQt3p90e8eu55t-3" vertex="1">
          <mxGeometry x="191" y="63" width="200" height="435" as="geometry" />
        </mxCell>
        <mxCell id="Z0Ft9Ds0R03B7kahXyOP-5" value="Topic1/Part2" style="rounded=0;whiteSpace=wrap;html=1;" parent="Z0Ft9Ds0R03B7kahXyOP-1" vertex="1">
          <mxGeometry x="44" y="320" width="102" height="36" as="geometry" />
        </mxCell>
        <mxCell id="Z0Ft9Ds0R03B7kahXyOP-4" value="Topic1/Part1" style="rounded=0;whiteSpace=wrap;html=1;" parent="Z0Ft9Ds0R03B7kahXyOP-1" vertex="1">
          <mxGeometry x="44" y="269" width="102" height="36" as="geometry" />
        </mxCell>
        <mxCell id="Z0Ft9Ds0R03B7kahXyOP-6" value="Topic2/Part1" style="rounded=0;whiteSpace=wrap;html=1;" parent="Z0Ft9Ds0R03B7kahXyOP-1" vertex="1">
          <mxGeometry x="44" y="367" width="102" height="36" as="geometry" />
        </mxCell>
        <mxCell id="Z0Ft9Ds0R03B7kahXyOP-52" value="Cache" style="rounded=1;whiteSpace=wrap;html=1;" parent="Z0Ft9Ds0R03B7kahXyOP-1" vertex="1">
          <mxGeometry x="44" y="220" width="93" height="36" as="geometry" />
        </mxCell>
        <mxCell id="r_JxJ2oKyWUwIvIO28ku-6" value="Storage Load Balancer" style="shape=hexagon;perimeter=hexagonPerimeter2;whiteSpace=wrap;html=1;fixedSize=1;fillColor=#1ba1e2;fontColor=#ffffff;strokeColor=#006EAF;" parent="Z0Ft9Ds0R03B7kahXyOP-1" vertex="1">
          <mxGeometry x="36" y="113" width="114" height="71" as="geometry" />
        </mxCell>
        <mxCell id="Z0Ft9Ds0R03B7kahXyOP-7" value="Broker#3" style="swimlane;whiteSpace=wrap;html=1;fillColor=#f8cecc;strokeColor=#b85450;" parent="dxsY-QIQt3p90e8eu55t-3" vertex="1">
          <mxGeometry x="653" y="65" width="200" height="433" as="geometry" />
        </mxCell>
        <mxCell id="Z0Ft9Ds0R03B7kahXyOP-8" value="Topic1/Part2" style="rounded=0;whiteSpace=wrap;html=1;" parent="Z0Ft9Ds0R03B7kahXyOP-7" vertex="1">
          <mxGeometry x="51" y="321" width="102" height="36" as="geometry" />
        </mxCell>
        <mxCell id="Z0Ft9Ds0R03B7kahXyOP-9" value="Topic1/Part1" style="rounded=0;whiteSpace=wrap;html=1;" parent="Z0Ft9Ds0R03B7kahXyOP-7" vertex="1">
          <mxGeometry x="51" y="270" width="102" height="36" as="geometry" />
        </mxCell>
        <mxCell id="Z0Ft9Ds0R03B7kahXyOP-10" value="Topic2/Part1" style="rounded=0;whiteSpace=wrap;html=1;" parent="Z0Ft9Ds0R03B7kahXyOP-7" vertex="1">
          <mxGeometry x="51" y="368" width="102" height="36" as="geometry" />
        </mxCell>
        <mxCell id="Z0Ft9Ds0R03B7kahXyOP-59" value="Cache" style="rounded=1;whiteSpace=wrap;html=1;" parent="Z0Ft9Ds0R03B7kahXyOP-7" vertex="1">
          <mxGeometry x="54" y="214" width="93" height="36" as="geometry" />
        </mxCell>
        <mxCell id="r_JxJ2oKyWUwIvIO28ku-28" value="Storage Load Balancer" style="shape=hexagon;perimeter=hexagonPerimeter2;whiteSpace=wrap;html=1;fixedSize=1;fillColor=#1ba1e2;fontColor=#ffffff;strokeColor=#006EAF;" parent="Z0Ft9Ds0R03B7kahXyOP-7" vertex="1">
          <mxGeometry x="36" y="111" width="114" height="71" as="geometry" />
        </mxCell>
        <mxCell id="Z0Ft9Ds0R03B7kahXyOP-11" value="Broker#2" style="swimlane;whiteSpace=wrap;html=1;fillColor=#f8cecc;strokeColor=#b85450;" parent="dxsY-QIQt3p90e8eu55t-3" vertex="1">
          <mxGeometry x="417" y="65" width="215" height="427" as="geometry" />
        </mxCell>
        <mxCell id="Z0Ft9Ds0R03B7kahXyOP-12" value="Topic1/Part2" style="rounded=0;whiteSpace=wrap;html=1;" parent="Z0Ft9Ds0R03B7kahXyOP-11" vertex="1">
          <mxGeometry x="49" y="314" width="102" height="36" as="geometry" />
        </mxCell>
        <mxCell id="Z0Ft9Ds0R03B7kahXyOP-13" value="Topic1/Part1" style="rounded=0;whiteSpace=wrap;html=1;" parent="Z0Ft9Ds0R03B7kahXyOP-11" vertex="1">
          <mxGeometry x="49" y="263" width="102" height="36" as="geometry" />
        </mxCell>
        <mxCell id="Z0Ft9Ds0R03B7kahXyOP-14" value="Topic2/Part1" style="rounded=0;whiteSpace=wrap;html=1;" parent="Z0Ft9Ds0R03B7kahXyOP-11" vertex="1">
          <mxGeometry x="49" y="365" width="102" height="36" as="geometry" />
        </mxCell>
        <mxCell id="Z0Ft9Ds0R03B7kahXyOP-58" value="Cache" style="rounded=1;whiteSpace=wrap;html=1;" parent="Z0Ft9Ds0R03B7kahXyOP-11" vertex="1">
          <mxGeometry x="51" y="210" width="93" height="36" as="geometry" />
        </mxCell>
        <mxCell id="r_JxJ2oKyWUwIvIO28ku-1" value="Controller" style="shape=hexagon;perimeter=hexagonPerimeter2;whiteSpace=wrap;html=1;fixedSize=1;fillColor=#d80073;fontColor=#ffffff;strokeColor=#A50040;" parent="Z0Ft9Ds0R03B7kahXyOP-11" vertex="1">
          <mxGeometry x="11" y="29" width="88" height="51" as="geometry" />
        </mxCell>
        <mxCell id="r_JxJ2oKyWUwIvIO28ku-3" value="Bootstrap Server" style="shape=hexagon;perimeter=hexagonPerimeter2;whiteSpace=wrap;html=1;fixedSize=1;fillColor=#6a00ff;fontColor=#ffffff;strokeColor=#3700CC;" parent="Z0Ft9Ds0R03B7kahXyOP-11" vertex="1">
          <mxGeometry x="115" y="27" width="88" height="51" as="geometry" />
        </mxCell>
        <mxCell id="r_JxJ2oKyWUwIvIO28ku-27" value="Storage Load Balancer" style="shape=hexagon;perimeter=hexagonPerimeter2;whiteSpace=wrap;html=1;fixedSize=1;fillColor=#1ba1e2;fontColor=#ffffff;strokeColor=#006EAF;" parent="Z0Ft9Ds0R03B7kahXyOP-11" vertex="1">
          <mxGeometry x="44" y="112" width="114" height="71" as="geometry" />
        </mxCell>
        <mxCell id="dxsY-QIQt3p90e8eu55t-4" value="Storgae Layer" style="swimlane;whiteSpace=wrap;html=1;dashed=1;dashPattern=8 8;" parent="1" vertex="1">
          <mxGeometry x="-119" y="613" width="1091" height="422" as="geometry" />
        </mxCell>
        <mxCell id="Z0Ft9Ds0R03B7kahXyOP-16" value="Bookie#1" style="shape=cylinder3;whiteSpace=wrap;html=1;boundedLbl=1;backgroundOutline=1;size=15;fillColor=#60a917;fontColor=#ffffff;strokeColor=#2D7600;" parent="dxsY-QIQt3p90e8eu55t-4" vertex="1">
          <mxGeometry x="76" y="206" width="193" height="165" as="geometry" />
        </mxCell>
        <mxCell id="Z0Ft9Ds0R03B7kahXyOP-17" value="Bookie#2" style="shape=cylinder3;whiteSpace=wrap;html=1;boundedLbl=1;backgroundOutline=1;size=15;fillColor=#60a917;fontColor=#ffffff;strokeColor=#2D7600;" parent="dxsY-QIQt3p90e8eu55t-4" vertex="1">
          <mxGeometry x="333" y="207" width="193" height="165" as="geometry" />
        </mxCell>
        <mxCell id="Z0Ft9Ds0R03B7kahXyOP-18" value="Bookie#3" style="shape=cylinder3;whiteSpace=wrap;html=1;boundedLbl=1;backgroundOutline=1;size=15;fillColor=#60a917;fontColor=#ffffff;strokeColor=#2D7600;" parent="dxsY-QIQt3p90e8eu55t-4" vertex="1">
          <mxGeometry x="600" y="211" width="193" height="165" as="geometry" />
        </mxCell>
        <mxCell id="Z0Ft9Ds0R03B7kahXyOP-31" value="Bookie#4" style="shape=cylinder3;whiteSpace=wrap;html=1;boundedLbl=1;backgroundOutline=1;size=15;fillColor=#60a917;fontColor=#ffffff;strokeColor=#2D7600;" parent="dxsY-QIQt3p90e8eu55t-4" vertex="1">
          <mxGeometry x="829" y="214" width="193" height="165" as="geometry" />
        </mxCell>
        <mxCell id="Z0Ft9Ds0R03B7kahXyOP-32" value="Storage" style="swimlane;fontStyle=0;childLayout=stackLayout;horizontal=1;startSize=30;horizontalStack=0;resizeParent=1;resizeParentMax=0;resizeLast=0;collapsible=1;marginBottom=0;whiteSpace=wrap;html=1;fillColor=#bac8d3;strokeColor=#23445d;" parent="dxsY-QIQt3p90e8eu55t-4" vertex="1">
          <mxGeometry x="104" y="67" width="140" height="120" as="geometry">
            <mxRectangle x="-318" y="594" width="54" height="30" as="alternateBounds" />
          </mxGeometry>
        </mxCell>
        <mxCell id="Z0Ft9Ds0R03B7kahXyOP-33" value="Segement#1" style="text;strokeColor=#b46504;fillColor=#fad7ac;align=left;verticalAlign=middle;spacingLeft=4;spacingRight=4;overflow=hidden;points=[[0,0.5],[1,0.5]];portConstraint=eastwest;rotatable=0;whiteSpace=wrap;html=1;" parent="Z0Ft9Ds0R03B7kahXyOP-32" vertex="1">
          <mxGeometry y="30" width="140" height="30" as="geometry" />
        </mxCell>
        <mxCell id="Z0Ft9Ds0R03B7kahXyOP-34" value="Segement#2" style="text;strokeColor=#ae4132;fillColor=#fad9d5;align=left;verticalAlign=middle;spacingLeft=4;spacingRight=4;overflow=hidden;points=[[0,0.5],[1,0.5]];portConstraint=eastwest;rotatable=0;whiteSpace=wrap;html=1;" parent="Z0Ft9Ds0R03B7kahXyOP-32" vertex="1">
          <mxGeometry y="60" width="140" height="30" as="geometry" />
        </mxCell>
        <mxCell id="Z0Ft9Ds0R03B7kahXyOP-35" value="Segement#3" style="text;strokeColor=#0e8088;fillColor=#b0e3e6;align=left;verticalAlign=middle;spacingLeft=4;spacingRight=4;overflow=hidden;points=[[0,0.5],[1,0.5]];portConstraint=eastwest;rotatable=0;whiteSpace=wrap;html=1;" parent="Z0Ft9Ds0R03B7kahXyOP-32" vertex="1">
          <mxGeometry y="90" width="140" height="30" as="geometry" />
        </mxCell>
        <mxCell id="Z0Ft9Ds0R03B7kahXyOP-40" value="Storage" style="swimlane;fontStyle=0;childLayout=stackLayout;horizontal=1;startSize=30;horizontalStack=0;resizeParent=1;resizeParentMax=0;resizeLast=0;collapsible=1;marginBottom=0;whiteSpace=wrap;html=1;fillColor=#bac8d3;strokeColor=#23445d;" parent="dxsY-QIQt3p90e8eu55t-4" vertex="1">
          <mxGeometry x="364" y="66" width="140" height="120" as="geometry">
            <mxRectangle x="-318" y="594" width="54" height="30" as="alternateBounds" />
          </mxGeometry>
        </mxCell>
        <mxCell id="Z0Ft9Ds0R03B7kahXyOP-41" value="Segement#1" style="text;strokeColor=#b46504;fillColor=#fad7ac;align=left;verticalAlign=middle;spacingLeft=4;spacingRight=4;overflow=hidden;points=[[0,0.5],[1,0.5]];portConstraint=eastwest;rotatable=0;whiteSpace=wrap;html=1;" parent="Z0Ft9Ds0R03B7kahXyOP-40" vertex="1">
          <mxGeometry y="30" width="140" height="30" as="geometry" />
        </mxCell>
        <mxCell id="Z0Ft9Ds0R03B7kahXyOP-42" value="Segement#2" style="text;strokeColor=#ae4132;fillColor=#fad9d5;align=left;verticalAlign=middle;spacingLeft=4;spacingRight=4;overflow=hidden;points=[[0,0.5],[1,0.5]];portConstraint=eastwest;rotatable=0;whiteSpace=wrap;html=1;" parent="Z0Ft9Ds0R03B7kahXyOP-40" vertex="1">
          <mxGeometry y="60" width="140" height="30" as="geometry" />
        </mxCell>
        <mxCell id="Z0Ft9Ds0R03B7kahXyOP-43" value="Segement#4" style="text;strokeColor=#10739e;fillColor=#b1ddf0;align=left;verticalAlign=middle;spacingLeft=4;spacingRight=4;overflow=hidden;points=[[0,0.5],[1,0.5]];portConstraint=eastwest;rotatable=0;whiteSpace=wrap;html=1;" parent="Z0Ft9Ds0R03B7kahXyOP-40" vertex="1">
          <mxGeometry y="90" width="140" height="30" as="geometry" />
        </mxCell>
        <mxCell id="Z0Ft9Ds0R03B7kahXyOP-44" value="Storage" style="swimlane;fontStyle=0;childLayout=stackLayout;horizontal=1;startSize=30;horizontalStack=0;resizeParent=1;resizeParentMax=0;resizeLast=0;collapsible=1;marginBottom=0;whiteSpace=wrap;html=1;fillColor=#bac8d3;strokeColor=#23445d;" parent="dxsY-QIQt3p90e8eu55t-4" vertex="1">
          <mxGeometry x="625" y="63" width="140" height="120" as="geometry">
            <mxRectangle x="-318" y="594" width="54" height="30" as="alternateBounds" />
          </mxGeometry>
        </mxCell>
        <mxCell id="Z0Ft9Ds0R03B7kahXyOP-45" value="Segement#1" style="text;strokeColor=#b46504;fillColor=#fad7ac;align=left;verticalAlign=middle;spacingLeft=4;spacingRight=4;overflow=hidden;points=[[0,0.5],[1,0.5]];portConstraint=eastwest;rotatable=0;whiteSpace=wrap;html=1;" parent="Z0Ft9Ds0R03B7kahXyOP-44" vertex="1">
          <mxGeometry y="30" width="140" height="30" as="geometry" />
        </mxCell>
        <mxCell id="Z0Ft9Ds0R03B7kahXyOP-47" value="Segement#3" style="text;strokeColor=#0e8088;fillColor=#b0e3e6;align=left;verticalAlign=middle;spacingLeft=4;spacingRight=4;overflow=hidden;points=[[0,0.5],[1,0.5]];portConstraint=eastwest;rotatable=0;whiteSpace=wrap;html=1;" parent="Z0Ft9Ds0R03B7kahXyOP-44" vertex="1">
          <mxGeometry y="60" width="140" height="30" as="geometry" />
        </mxCell>
        <mxCell id="Z0Ft9Ds0R03B7kahXyOP-46" value="Segement#4" style="text;strokeColor=#10739e;fillColor=#b1ddf0;align=left;verticalAlign=middle;spacingLeft=4;spacingRight=4;overflow=hidden;points=[[0,0.5],[1,0.5]];portConstraint=eastwest;rotatable=0;whiteSpace=wrap;html=1;" parent="Z0Ft9Ds0R03B7kahXyOP-44" vertex="1">
          <mxGeometry y="90" width="140" height="30" as="geometry" />
        </mxCell>
        <mxCell id="Z0Ft9Ds0R03B7kahXyOP-48" value="Storage" style="swimlane;fontStyle=0;childLayout=stackLayout;horizontal=1;startSize=30;horizontalStack=0;resizeParent=1;resizeParentMax=0;resizeLast=0;collapsible=1;marginBottom=0;whiteSpace=wrap;html=1;fillColor=#bac8d3;strokeColor=#23445d;" parent="dxsY-QIQt3p90e8eu55t-4" vertex="1">
          <mxGeometry x="852" y="69" width="140" height="120" as="geometry">
            <mxRectangle x="-318" y="594" width="54" height="30" as="alternateBounds" />
          </mxGeometry>
        </mxCell>
        <mxCell id="Z0Ft9Ds0R03B7kahXyOP-50" value="Segement#2" style="text;strokeColor=#ae4132;fillColor=#fad9d5;align=left;verticalAlign=middle;spacingLeft=4;spacingRight=4;overflow=hidden;points=[[0,0.5],[1,0.5]];portConstraint=eastwest;rotatable=0;whiteSpace=wrap;html=1;" parent="Z0Ft9Ds0R03B7kahXyOP-48" vertex="1">
          <mxGeometry y="30" width="140" height="30" as="geometry" />
        </mxCell>
        <mxCell id="Z0Ft9Ds0R03B7kahXyOP-51" value="Segement#3" style="text;strokeColor=#0e8088;fillColor=#b0e3e6;align=left;verticalAlign=middle;spacingLeft=4;spacingRight=4;overflow=hidden;points=[[0,0.5],[1,0.5]];portConstraint=eastwest;rotatable=0;whiteSpace=wrap;html=1;" parent="Z0Ft9Ds0R03B7kahXyOP-48" vertex="1">
          <mxGeometry y="60" width="140" height="30" as="geometry" />
        </mxCell>
        <mxCell id="Z0Ft9Ds0R03B7kahXyOP-49" value="Segement#4" style="text;strokeColor=#10739e;fillColor=#b1ddf0;align=left;verticalAlign=middle;spacingLeft=4;spacingRight=4;overflow=hidden;points=[[0,0.5],[1,0.5]];portConstraint=eastwest;rotatable=0;whiteSpace=wrap;html=1;" parent="Z0Ft9Ds0R03B7kahXyOP-48" vertex="1">
          <mxGeometry y="90" width="140" height="30" as="geometry" />
        </mxCell>
        <mxCell id="dxsY-QIQt3p90e8eu55t-5" value="Monitor" style="ellipse;shape=cloud;whiteSpace=wrap;html=1;fillColor=#e3c800;fontColor=#000000;strokeColor=#B09500;fontSize=18;" parent="1" vertex="1">
          <mxGeometry x="-507" y="824" width="309" height="158" as="geometry" />
        </mxCell>
      </root>
    </mxGraphModel>
  </diagram>
</mxfile>
